ffmpeg started on 2016-11-25 at 20:02:42
Report written to "Output/NVENCh264/results/ffmpeg/crowd_run_2160p50bd4000k.log"
Command line:
Tools/ffmpeg/ffmpeg -benchmark -y -i Input/y4m/crowd_run_2160p50.y4m -c:v h264_nvenc -preset bd -b:v 4000k -an Output/NVENCh264/encoded/crowd_run_2160p50bd4000k.mkv
ffmpeg version N-82227-gdb23fde Copyright (c) 2000-2016 the FFmpeg developers
  built with gcc 5.4.0 (Ubuntu 5.4.0-6ubuntu1~16.04.2) 20160609
  configuration: --prefix=/home/jaroslav/ffmpeg_build --pkg-config-flags=--static --extra-cflags=-I/home/jaroslav/ffmpeg_build/include --extra-ldflags=-L/home/jaroslav/ffmpeg_build/lib --bindir=/home/jaroslav/bin --enable-gpl --enable-libass --enable-libfdk-aac --enable-libfreetype --enable-libmp3lame --enable-libopus --enable-libtheora --enable-libvorbis --enable-libvpx --enable-libx264 --enable-libx265 --enable-nvenc --enable-libmfx --enable-libxvid --enable-libgsm --enable-libopencore-amrnb --enable-version3 --enable-nonfree
  libavutil      55. 35.100 / 55. 35.100
  libavcodec     57. 66.101 / 57. 66.101
  libavformat    57. 57.100 / 57. 57.100
  libavdevice    57.  2.100 / 57.  2.100
  libavfilter     6. 66.100 /  6. 66.100
  libswscale      4.  3.100 /  4.  3.100
  libswresample   2.  4.100 /  2.  4.100
  libpostproc    54.  2.100 / 54.  2.100
Input #0, yuv4mpegpipe, from 'Input/y4m/crowd_run_2160p50.y4m':
  Duration: 00:00:10.00, start: 0.000000, bitrate: 4976642 kb/s
    Stream #0:0: Video: rawvideo (I420 / 0x30323449), yuv420p(progressive), 3840x2160, SAR 1:1 DAR 16:9, 50 fps, 50 tbr, 50 tbn, 50 tbc
Output #0, matroska, to 'Output/NVENCh264/encoded/crowd_run_2160p50bd4000k.mkv':
  Metadata:
    encoder         : Lavf57.57.100
    Stream #0:0: Video: h264 (h264_nvenc) (Main) (H264 / 0x34363248), yuv420p, 3840x2160 [SAR 1:1 DAR 16:9], q=-1--1, 4000 kb/s, 50 fps, 1k tbn, 50 tbc
    Metadata:
      encoder         : Lavc57.66.101 h264_nvenc
    Side data:
      cpb: bitrate max/min/avg: 0/0/4000000 buffer size: 8000000 vbv_delay: -1
Stream mapping:
  Stream #0:0 -> #0:0 (rawvideo (native) -> h264 (h264_nvenc))
Press [q] to stop, [?] for help
frame=   14 fps=0.0 q=0.0 size=       0kB time=00:00:00.00 bitrate=N/A speed=   0x    frame=   32 fps= 31 q=49.0 size=       1kB time=00:00:00.02 bitrate= 284.6kbits/s speed=0.0201x    frame=   50 fps= 32 q=49.0 size=       1kB time=00:00:00.38 bitrate=  15.7kbits/s speed=0.243x    frame=   68 fps= 33 q=49.0 size=       1kB time=00:00:00.74 bitrate=   8.1kbits/s speed=0.355x    frame=   86 fps= 33 q=49.0 size=       1kB time=00:00:01.10 bitrate=   5.4kbits/s speed=0.423x    frame=  104 fps= 33 q=49.0 size=       1kB time=00:00:01.46 bitrate=   4.1kbits/s speed=0.467x    frame=  122 fps= 33 q=49.0 size=       1kB time=00:00:01.82 bitrate=   3.3kbits/s speed= 0.5x    frame=  125 fps= 29 q=49.0 size=       1kB time=00:00:01.88 bitrate=   3.2kbits/s speed=0.437x    frame=  126 fps= 15 q=49.0 size=       1kB time=00:00:01.90 bitrate=   3.1kbits/s speed=0.229x    frame=  127 fps= 11 q=49.0 size=       1kB time=00:00:01.92 bitrate=   3.1kbits/s speed=0.163x    frame=  143 fps= 12 q=49.0 size=       1kB time=00:00:02.24 bitrate=   2.7kbits/s speed=0.183x    frame=  161 fps= 13 q=49.0 size=       1kB time=00:00:02.60 bitrate=   2.3kbits/s speed=0.203x    frame=  178 fps= 13 q=49.0 size=       1kB time=00:00:02.94 bitrate=   2.0kbits/s speed=0.221x    frame=  195 fps= 14 q=49.0 size=       1kB time=00:00:03.28 bitrate=   1.8kbits/s speed=0.238x    frame=  212 fps= 15 q=49.0 size=       1kB time=00:00:03.62 bitrate=   1.7kbits/s speed=0.253x    frame=  230 fps= 15 q=49.0 size=       1kB time=00:00:03.98 bitrate=   1.5kbits/s speed=0.268x    frame=  248 fps= 16 q=49.0 size=       1kB time=00:00:04.34 bitrate=   1.4kbits/s speed=0.282x    frame=  266 fps= 17 q=49.0 size=       1kB time=00:00:04.70 bitrate=   1.3kbits/s speed=0.296x    frame=  283 fps= 17 q=49.0 size=    3188kB time=00:00:05.04 bitrate=5181.2kbits/s speed=0.307x    frame=  301 fps= 18 q=49.0 size=    3188kB time=00:00:05.40 bitrate=4835.8kbits/s speed=0.319x    frame=  319 fps= 18 q=49.0 size=    3188kB time=00:00:05.76 bitrate=4533.6kbits/s speed=0.33x    frame=  337 fps= 19 q=49.0 size=    3188kB time=00:00:06.12 bitrate=4267.0kbits/s speed=0.341x    frame=  355 fps= 19 q=49.0 size=    3188kB time=00:00:06.48 bitrate=4030.0kbits/s speed=0.351x    frame=  373 fps= 20 q=49.0 size=    3188kB time=00:00:06.84 bitrate=3817.9kbits/s speed=0.36x    frame=  391 fps= 20 q=49.0 size=    3188kB time=00:00:07.20 bitrate=3627.0kbits/s speed=0.369x    frame=  409 fps= 20 q=49.0 size=    3188kB time=00:00:07.56 bitrate=3454.3kbits/s speed=0.378x    frame=  427 fps= 21 q=49.0 size=    3188kB time=00:00:07.92 bitrate=3297.3kbits/s speed=0.386x    frame=  445 fps= 21 q=49.0 size=    3188kB time=00:00:08.28 bitrate=3154.0kbits/s speed=0.393x    frame=  463 fps= 21 q=49.0 size=    3188kB time=00:00:08.64 bitrate=3022.6kbits/s speed=0.401x    frame=  481 fps= 22 q=49.0 size=    3188kB time=00:00:09.00 bitrate=2901.7kbits/s speed=0.408x    frame=  499 fps= 22 q=49.0 size=    3188kB time=00:00:09.36 bitrate=2790.1kbits/s speed=0.414x    frame=  500 fps= 22 q=49.0 Lsize=    6574kB time=00:00:09.98 bitrate=5395.4kbits/s speed=0.44x    
video:6569kB audio:0kB subtitle:0kB other streams:0kB global headers:0kB muxing overhead: 0.064708%
bench: utime=1.092s
bench: maxrss=1375136kB
